<svg id="Capa_1" enable-background="new 0 0 512 512" height="512" viewBox="0 0 512 512" width="512" xmlns="http://www.w3.org/2000/svg"><g><path fill="#f09e0e" d="m250.124 90.81h15v15h-15z"/><path fill="#f09e0e" d="m250.124 135.811h15v-15h15v-15h-15v14.999h-15v-14.999h-15v15h15z"/><path fill="#f09e0e" d="m301.723 329.311h15v15h-15z"/><path fill="#f09e0e" d="m331.723 299.311h15v15h-15z"/><path fill="#f09e0e" d="m331.723 359.31h15v15.001h-15z"/><path fill="#f09e0e" d="m361.722 329.311h15v15h-15z"/><path fill="#f09e0e" d="m93.802 332.321 3.359-3.502-1.818-4.5c-9.86-24.4-10.509-52.39-1.651-71.306 5.702-12.179 14.971-20.402 27.545-24.442l-4.588-14.281c-16.47 5.291-29.105 16.482-36.542 32.362-10.146 21.67-10.217 51.477-.379 78.813-27.291 30.831-36.595 73.4-24.238 112.254l14.295-4.547c-11.169-35.118-1.966-73.762 24.017-100.851z"/><path fill="#f09e0e" d="m248.359 325.464c9.738-27.069 9.763-56.664-.125-78.264-7.236-15.807-19.581-27.061-35.699-32.547l-4.834 14.199c12.291 4.184 21.339 12.457 26.895 24.591 8.645 18.883 7.917 46.703-1.852 70.876l-1.818 4.5 3.359 3.502c27.949 29.138 36.352 73.046 20.907 109.258-15.019 35.221-48.242 55.421-91.148 55.421-40.724 0-73.197-18.568-89.095-50.944l-13.465 6.611c18.516 37.707 55.898 59.333 102.56 59.333 25.446 0 47.837-6.212 66.552-18.462 17.013-11.137 30.289-27.068 38.395-46.074 8.578-20.114 11.041-42.45 7.123-64.593-3.784-21.382-13.348-41.131-27.755-57.407z"/><path fill="#f09e0e" d="m213.698 354.223c3.034 3.307 5.787 6.953 8.185 10.839l12.766-7.875c-2.894-4.691-6.224-9.101-9.897-13.104z"/><path fill="#f09e0e" d="m241.184 436.187c8.607-19.807 8.876-43.257.738-64.338l-13.994 5.402c6.73 17.434 6.548 36.736-.502 52.957z"/><path fill="#f09e0e" d="m134.044 270.369c-8.647 8.052-14.07 19.523-14.07 32.243 0 24.301 19.77 44.071 44.07 44.071 11.314 0 22.069-4.281 30.284-12.056l-10.311-10.895c-5.417 5.127-12.511 7.95-19.974 7.95-16.029 0-29.07-13.041-29.07-29.071 0-16.029 13.041-29.07 29.07-29.07s29.07 13.041 29.07 29.07c0 3.955-.777 7.785-2.312 11.384l13.799 5.881c2.331-5.469 3.513-11.277 3.513-17.265 0-12.72-5.423-24.191-14.07-32.243v-86.515h-15v77.319c-4.684-1.701-9.735-2.632-15-2.632s-10.316.931-15 2.632v-174.746h30v82.428h15v-82.428h15v-86.426h-90v35.713h15v-20.713h60v56.426h-60v-20.713h-15v35.713h15v183.943z"/><path fill="#f09e0e" d="m141.544 359.946v70.018h-22.5v15h90v-15h-22.5v-70.018h-15v70.018h-15v-70.018z"/><path fill="#f09e0e" d="m164.045 30h15v15h-15z"/><path fill="#f09e0e" d="m460 185.843v-81.263-5.827-39.654l-132.6 33.826v35.827 9.653 64.408c-8.663-2.704-19.408-1.5-29.388 4.077h.001c-16.888 9.437-24.268 27.297-16.8 40.661 4.551 8.143 13.411 12.466 23.461 12.465 6.443 0 13.377-1.777 19.973-5.464 16.086-8.989 23.535-25.617 17.753-38.726v-81.248l45.885-11.706-3.707-14.535-42.178 10.762v-14.52l102.6-26.174v14.52l-45.885 11.705 3.707 14.535 42.178-10.759v64.491c-1.689-.53-3.462-.924-5.312-1.153-7.85-.971-16.397.856-24.075 5.147h-.001c-7.677 4.291-13.715 10.614-17 17.807-3.593 7.866-3.519 16.196.202 22.854s10.776 11.087 19.358 12.149c1.377.17 2.773.254 4.185.254 6.635 0 13.56-1.863 19.891-5.401 7.678-4.29 13.716-10.613 17.001-17.807 3.25-7.117 3.489-14.61.751-20.904zm-142.67 55.616c-9.067 5.067-19.826 4.494-23.022-1.225-3.196-5.721 1.955-15.183 11.022-20.25h.001c4.156-2.323 8.669-3.461 12.645-3.461 4.697 0 8.646 1.588 10.378 4.686 3.196 5.72-1.956 15.183-11.024 20.25zm128.274-40.944c-1.94 4.249-5.831 8.238-10.673 10.944-4.843 2.706-10.281 3.928-14.916 3.354-2.226-.275-6.239-1.236-8.107-4.58-1.868-3.342-.584-7.264.349-9.304 1.94-4.25 5.831-8.239 10.674-10.945h-.001c4.843-2.706 10.279-3.929 14.916-3.354 2.226.275 6.239 1.236 8.107 4.58 1.868 3.342.584 7.265-.349 9.305z"/></g></svg>
